<?xml version="1.0" standalone="no"?>
<!DOCTYPE svg PUBLIC "-//W3C//DTD SVG 20010904//EN"
 "http://www.w3.org/TR/2001/REC-SVG-20010904/DTD/svg10.dtd">
<svg version="1.0" xmlns="http://www.w3.org/2000/svg"
 width="1408.000000pt" height="768.000000pt" viewBox="0 0 1408.000000 768.000000"
 preserveAspectRatio="xMidYMid meet">

<g transform="translate(0.000000,768.000000) scale(0.100000,-0.100000)"
fill="#000000" stroke="none">
<path d="M8780 6319 c0 -748 4 -1359 8 -1357 5 2 137 81 294 177 l285 174 -41
21 c-23 12 -48 34 -56 51 -8 17 -19 33 -24 36 -5 4 -5 13 -1 20 6 9 3 10 -11
5 -15 -6 -16 -5 -7 5 8 8 9 18 2 31 -5 10 -12 33 -14 51 -2 17 -7 55 -10 82
-10 75 -17 147 -17 172 0 13 -5 20 -10 17 -6 -4 -6 1 1 13 7 15 6 25 -5 41 -9
13 -12 28 -7 35 11 17 10 38 -3 65 -7 13 -9 38 -6 55 3 18 5 39 4 47 -6 87 -9
107 -15 118 -5 6 -6 16 -3 21 3 4 2 38 -2 74 -5 36 -5 64 0 61 4 -3 8 2 8 10
0 9 -4 16 -9 16 -5 0 -8 11 -6 25 1 14 -1 25 -5 25 -4 0 -4 16 0 34 5 23 3 43
-5 59 -8 17 -9 30 -3 42 8 12 6 20 -3 26 -8 5 -9 9 -4 9 10 0 11 79 2 147 -2
18 -2 35 1 38 10 10 10 35 1 35 -6 0 -7 4 -4 10 3 5 2 26 -4 45 -6 23 -6 35 0
35 6 0 8 4 5 9 -6 9 -12 110 -21 376 -6 164 -8 176 -18 192 -4 7 -5 23 -1 36
3 14 1 28 -4 31 -5 3 -8 22 -5 42 5 35 -10 80 -32 96 -5 4 -65 8 -132 8 l-123
0 0 -1361z"/>
<path d="M5311 5085 c-2 -24 185 -383 272 -522 167 -267 390 -559 641 -838
113 -126 126 -144 126 -177 0 -21 2 -38 4 -38 3 0 62 34 131 76 105 63 124 78
114 90 -7 8 -18 13 -26 10 -7 -3 -13 -1 -13 4 0 6 -9 10 -20 10 -11 0 -23 7
-26 15 -4 8 -10 12 -15 9 -5 -3 -9 2 -9 11 0 11 -5 15 -16 11 -8 -3 -12 -2 -9
4 3 5 -6 12 -20 16 -14 3 -25 10 -25 16 0 5 -13 14 -30 19 -16 6 -28 14 -25
18 6 11 -35 52 -45 46 -6 -3 -7 1 -4 9 4 11 0 16 -11 16 -9 0 -13 5 -10 10 3
6 1 10 -5 10 -6 0 -9 4 -5 9 3 5 -4 12 -15 16 -11 4 -18 10 -15 15 3 4 -2 11
-11 14 -10 4 -14 12 -10 23 4 10 4 14 0 11 -10 -11 -44 11 -44 27 0 8 -6 15
-14 15 -8 0 -24 14 -36 30 -12 17 -18 30 -13 30 4 0 -4 8 -20 18 -15 10 -24
22 -20 25 3 4 1 7 -6 7 -7 0 -10 4 -7 8 8 13 -63 84 -76 76 -7 -4 -8 -3 -4 4
4 7 -4 24 -19 39 -14 16 -23 33 -21 40 3 7 0 15 -6 19 -7 4 -8 3 -4 -4 4 -7 1
-12 -7 -12 -11 0 -13 7 -9 22 4 17 2 20 -12 15 -11 -4 -16 -2 -14 6 4 21 -44
106 -64 113 -11 3 -17 11 -15 18 7 16 -19 49 -32 41 -6 -3 -11 1 -11 9 0 10
-6 13 -15 10 -11 -4 -15 0 -15 17 0 12 -3 19 -7 16 -8 -9 -53 53 -53 74 0 9
-7 19 -15 23 -8 3 -15 9 -14 13 4 24 -2 43 -12 38 -6 -4 -13 2 -16 14 -3 12
-9 21 -14 21 -5 0 -9 4 -9 9 0 13 -45 61 -56 61 -13 0 -64 49 -64 60 0 6 -3
10 -7 9 -20 -3 -51 14 -47 26 3 7 -4 15 -15 18 -12 3 -21 12 -21 21 0 21 -40
76 -55 76 -7 0 -17 10 -23 23 -6 12 -11 17 -11 12z"/>
<path d="M6150 4071 c0 -6 4 -13 10 -16 6 -3 7 1 4 9 -7 18 -14 21 -14 7z"/>
<path d="M6378 3504 l-28 -14 0 -816 c0 -538 3 -821 10 -834 7 -12 16 -17 27
-13 9 4 14 2 10 -3 -3 -5 2 -10 11 -11 9 -1 26 -4 37 -6 11 -3 41 -9 67 -12
26 -4 45 -11 42 -16 -3 -5 6 -5 20 0 18 7 28 6 36 -5 7 -7 16 -14 21 -14 5 0
9 321 9 737 l0 737 -24 21 c-13 11 -26 30 -28 40 -4 26 -20 44 -32 37 -5 -3
-6 0 -3 5 4 6 -9 27 -28 47 -19 21 -35 34 -35 30 0 -4 -14 7 -31 24 -17 18
-36 32 -41 32 -5 0 -7 4 -3 9 3 5 1 12 -5 16 -6 4 -8 11 -5 16 8 12 5 11 -27
-7z"/>
<path d="M6805 3180 c10 -11 20 -20 23 -20 3 0 -3 9 -13 20 -10 11 -20 20 -23
20 -3 0 3 -9 13 -20z"/>
<path d="M6882 3114 c10 -10 20 -16 22 -13 3 3 -5 11 -17 18 -21 13 -21 12 -5
-5z"/>
<path d="M7005 3010 c10 -11 20 -20 23 -20 3 0 -3 9 -13 20 -10 11 -20 20 -23
20 -3 0 3 -9 13 -20z"/>
<path d="M7044 2982 c4 -7 98 -90 209 -185 292 -250 289 -247 300 -240 6 3 7
2 4 -4 -4 -6 89 -91 206 -190 116 -98 387 -327 602 -508 609 -516 1083 -916
1545 -1304 234 -197 476 -401 539 -454 l115 -97 78 0 c62 0 78 3 78 15 0 9 -6
12 -15 9 -15 -6 -20 5 -15 35 1 12 -1 12 -13 3 -11 -10 -17 -9 -27 3 -7 8 -16
12 -21 9 -5 -3 -9 0 -9 5 0 6 -7 11 -15 11 -8 0 -15 5 -15 11 0 10 -23 34 -67
69 -7 6 -10 17 -7 25 5 11 2 13 -10 9 -9 -3 -16 -2 -16 4 0 5 -12 13 -26 16
-20 5 -24 11 -19 29 5 17 4 19 -4 7 -8 -11 -11 -12 -11 -2 0 7 -4 10 -10 7 -5
-3 -10 -1 -10 4 0 6 -4 11 -9 11 -5 0 -24 13 -43 30 -76 69 -88 78 -88 74 0
-3 -6 1 -14 8 -8 7 -12 16 -9 21 2 4 -3 7 -11 7 -9 0 -16 6 -16 14 0 8 -11 17
-25 20 -14 4 -25 13 -25 22 0 8 -5 12 -11 9 -6 -4 -13 2 -16 13 -3 11 -16 23
-29 26 -13 4 -24 13 -24 21 0 8 -4 15 -9 15 -5 0 -16 7 -24 15 -8 8 -21 16
-28 17 -7 2 -23 13 -35 25 -12 13 -26 23 -33 23 -6 0 -11 5 -11 10 0 6 -11 15
-25 20 -14 5 -28 16 -31 24 -3 8 -12 12 -20 9 -8 -3 -14 1 -14 9 0 8 -23 34
-51 59 -29 24 -65 57 -80 72 -16 15 -29 24 -30 20 0 -4 -4 1 -8 12 -5 11 -14
20 -22 20 -8 1 -13 7 -11 14 2 8 -3 11 -12 8 -8 -3 -22 3 -31 13 -10 11 -22
17 -26 14 -5 -3 -9 2 -9 11 0 9 -6 15 -12 14 -27 -3 -36 2 -41 23 -4 12 -9 19
-13 15 -3 -3 -15 4 -25 16 -12 15 -18 17 -19 8 0 -9 -7 -6 -20 9 -22 26 -26
35 -9 24 7 -4 10 -1 7 7 -3 8 -16 13 -32 12 -15 -1 -24 2 -20 8 7 12 -66 82
-110 107 -17 9 -36 24 -43 32 -7 8 -13 11 -13 5 0 -5 -7 1 -16 13 -8 12 -22
22 -30 22 -8 0 -14 7 -14 15 0 8 -6 15 -14 15 -8 0 -16 7 -20 15 -3 8 -12 15
-20 15 -14 0 -31 27 -27 43 1 5 -4 7 -10 5 -7 -2 -22 5 -34 16 -48 46 -101 85
-114 86 -7 0 -21 8 -30 18 -9 10 -29 25 -44 35 -15 10 -25 22 -22 28 4 5 1 8
-6 7 -7 -2 -18 7 -24 20 -5 12 -15 22 -22 22 -7 0 -13 6 -13 14 0 8 -9 18 -20
21 -11 3 -20 10 -20 14 0 5 -15 14 -32 22 -18 7 -48 28 -66 46 -18 18 -37 31
-42 28 -5 -3 -18 8 -30 25 -12 16 -27 30 -35 30 -7 0 -15 7 -19 15 -3 8 -13
15 -21 15 -9 0 -13 5 -10 10 3 6 2 10 -4 10 -5 0 -22 11 -37 25 -15 14 -31 25
-36 25 -5 0 -18 9 -30 20 -12 10 -25 17 -30 14 -4 -3 -8 0 -8 5 0 6 -7 11 -15
11 -8 0 -14 3 -14 8 3 19 -2 25 -11 12 -8 -12 -10 -11 -10 6 0 20 -41 64 -60
64 -5 0 -36 27 -70 60 -34 33 -68 60 -76 60 -8 0 -12 5 -9 10 3 6 -2 10 -13
10 -11 0 -35 13 -53 30 -19 16 -39 30 -46 30 -6 0 -20 11 -30 24 -10 13 -33
31 -51 40 -18 9 -32 21 -32 27 0 16 -47 69 -54 62 -3 -4 -6 2 -6 12 0 10 -3
15 -6 12 -4 -4 -25 7 -47 23 -22 16 -44 27 -49 24 -4 -3 -8 -1 -8 3 0 12 -56
44 -64 36 -3 -3 -6 -1 -6 5 0 14 -36 52 -50 52 -5 0 -17 14 -25 30 -9 18 -21
28 -27 24 -6 -4 -8 -3 -5 3 7 10 -20 40 -32 37 -3 -1 -5 2 -4 7 2 4 -5 5 -15
2 -9 -3 -14 -2 -10 2 8 8 -14 24 -62 45 -36 16 -105 74 -192 163 -42 42 -84
77 -93 77 -10 0 -14 5 -9 13 4 6 4 9 -1 5 -4 -4 -15 -2 -23 5 -13 10 -14 9 -8
-1z"/>
</g>
</svg>
